<svg width="16" height="16" viewBox="0 0 16 16" fill="none" xmlns="http://www.w3.org/2000/svg">
<rect width="16" height="16" fill="white"/>
<path d="M4.18675 10C3.50643 9.99574 2.97189 9.81896 2.58313 9.46965C2.19438 9.11608 2 8.6262 2 8C2 7.3738 2.19235 6.88392 2.57706 6.53035C2.96582 6.17678 3.50238 6 4.18675 6C4.72129 6 5.17687 6.09798 5.55347 6.29393V7.3099H5.51095C5.40972 6.93078 5.25381 6.66028 5.04323 6.4984C4.83266 6.33653 4.56741 6.25559 4.2475 6.25559C3.81825 6.25559 3.49023 6.41108 3.26346 6.72204C3.03668 7.02875 2.9233 7.45048 2.9233 7.98722C2.9233 8.5197 3.03466 8.94356 3.25738 9.25879C3.48821 9.58253 3.80205 9.74441 4.1989 9.74441C4.48642 9.74441 4.72332 9.69755 4.9096 9.60383C5.09588 9.51012 5.24368 9.36102 5.35302 9.15655C5.46236 8.94782 5.54335 8.66667 5.596 8.3131H5.63852L5.71141 9.27796C5.58587 9.49521 5.39352 9.66986 5.13435 9.80192C4.87923 9.93397 4.56336 10 4.18675 10Z" fill="black"/>
<path d="M8.33105 10C7.65073 9.99574 7.11619 9.81896 6.72743 9.46965C6.33867 9.11608 6.1443 8.6262 6.1443 8C6.1443 7.3738 6.33665 6.88392 6.72136 6.53035C7.11011 6.17678 7.64668 6 8.33105 6C8.86559 6 9.32116 6.09798 9.69777 6.29393V7.3099H9.65525C9.55401 6.93078 9.39811 6.66028 9.18753 6.4984C8.97695 6.33653 8.71171 6.25559 8.39179 6.25559C7.96254 6.25559 7.63453 6.41108 7.40775 6.72204C7.18098 7.02875 7.06759 7.45048 7.06759 7.98722C7.06759 8.5197 7.17896 8.94356 7.40168 9.25879C7.6325 9.58253 7.94634 9.74441 8.3432 9.74441C8.63072 9.74441 8.86762 9.69755 9.05389 9.60383C9.24017 9.51012 9.38798 9.36102 9.49732 9.15655C9.60666 8.94782 9.68765 8.66667 9.74029 8.3131H9.78281L9.8557 9.27796C9.73017 9.49521 9.53781 9.66986 9.27864 9.80192C9.02352 9.93397 8.70766 10 8.33105 10Z" fill="black"/>
<path d="M12.4753 10C11.795 9.99574 11.2605 9.81896 10.8717 9.46965C10.483 9.11608 10.2886 8.6262 10.2886 8C10.2886 7.3738 10.4809 6.88392 10.8657 6.53035C11.2544 6.17678 11.791 6 12.4753 6C13.0099 6 13.4655 6.09798 13.8421 6.29393V7.3099H13.7995C13.6983 6.93078 13.5424 6.66028 13.3318 6.4984C13.1212 6.33653 12.856 6.25559 12.5361 6.25559C12.1068 6.25559 11.7788 6.41108 11.5521 6.72204C11.3253 7.02875 11.2119 7.45048 11.2119 7.98722C11.2119 8.5197 11.3233 8.94356 11.546 9.25879C11.7768 9.58253 12.0906 9.74441 12.4875 9.74441C12.775 9.74441 13.0119 9.69755 13.1982 9.60383C13.3845 9.51012 13.5323 9.36102 13.6416 9.15655C13.751 8.94782 13.8319 8.66667 13.8846 8.3131H13.9271L14 9.27796C13.8745 9.49521 13.6821 9.66986 13.4229 9.80192C13.1678 9.93397 12.852 10 12.4753 10Z" fill="black"/>
</svg>
