<?xml version="1.0" encoding="utf-8"?>
<!-- Generator: Adobe Illustrator 24.1.3, SVG Export Plug-In . SVG Version: 6.00 Build 0)  -->
<svg version="1.1" xmlns="http://www.w3.org/2000/svg" xmlns:xlink="http://www.w3.org/1999/xlink" x="0px" y="0px"
	 viewBox="0 0 267 401" style="enable-background:new 0 0 267 401;" xml:space="preserve">
<style type="text/css">
	.st0{opacity:0.4;}
	.st1{opacity:0.6;}
	.st2{fill:#D4C4B5;}
	.st3{fill:#946D43;}
	.st4{fill:#C4C4C4;}
	.st5{fill:#FFFFFF;}
</style>
<g id="Layer_1">
</g>
<g id="chopin">
</g>
<g id="beethoven_1_">
	<path id="body" class="st2" d="M82,188c-12,6-18,10-19,17s-9,20-10,21l5,1c0,0-10,13-14,19s-11,26-15,28s-23,0-26,2s-19,37-19,37
		v107h295V244c0,0-34-9-39-19s-4-34-21-46s-28-14-36-20s-85,13-85,13L82,188z"/>
	<path id="pace_2_" class="st3" d="M60.82,113c1,19,2,37,5,43s4,13,4,17s4,17,8,24s13.5,19.5,15.5,21.5s6,11,16,11s24-2,36-14
		s22-37,23-41s2-17,2-26s-35-68-35-68l-55,4L60.82,113z"/>
	<path id="hair_2_" class="st4" d="M69.82,174c-5,4-26.5,8.5-32.5,2.5s-15-10-11-26c2-8,16-5,16-10s-10-29-3-42s16-18,19-21
		s0-20,6-25s30-8,36-13s13-9,13-9c5-3,14,7,16,6s12-6,15-5s11,13,17,13s18,13,24,27s7,33,14,32s38,18,33,26s-12,18-21,21s-4,16-9,14
		s-14,0-21-3s-17-3-21-13s-11-11-10-23c0-6-12-10-13-23s-14-10-23-7s-21-3-27,1s-15,27-24,24C56.82,118,71.82,172,69.82,174z"/>
	<g id="open-eyes_2_">
		<circle class="st5" cx="83.15" cy="159.04" r="4.69"/>
		<circle class="st5" cx="125.75" cy="151.04" r="4.69"/>
	</g>
	<g id="close-eyes_2_">
		<path class="st5" d="M94.58,159.75l-16.57,3.81c-0.81,0.19-1.61-0.32-1.8-1.13l-0.56-2.42c-0.19-0.81,0.32-1.61,1.13-1.8
			l16.57-3.81c0.81-0.19,1.61,0.32,1.8,1.13l0.56,2.42C95.89,158.76,95.39,159.57,94.58,159.75z" visibility="hidden" />
		<path class="st5" d="M133.9,151.27l-16.57,3.81c-0.81,0.19-1.61-0.32-1.8-1.13l-0.56-2.42c-0.19-0.81,0.32-1.61,1.13-1.8
			l16.57-3.81c0.81-0.19,1.61,0.32,1.8,1.13l0.56,2.42C135.21,150.28,134.7,151.08,133.9,151.27z" visibility="hidden" />
	</g>
</g>
</svg>
