<?xml version="1.0" encoding="utf-8"?>
<!-- Generator: Adobe Illustrator 24.1.3, SVG Export Plug-In . SVG Version: 6.00 Build 0)  -->
<svg version="1.1" xmlns="http://www.w3.org/2000/svg" xmlns:xlink="http://www.w3.org/1999/xlink" x="0px" y="0px"
	 viewBox="0 0 267 401" style="enable-background:new 0 0 267 401;" xml:space="preserve">
<style type="text/css">
	.st0{fill:#D4C4B5;}
	.st1{fill:#946D43;}
	.st2{fill:#C4C4C4;}
	.st3{fill:#FFFFFF;}
	.st4{fill:#51361C;}
</style>
<g id="Layer_1">
</g>
<g id="chopin">
</g>
<g id="beethoven_1_">
</g>
<g id="hoon">
</g>
<g id="gogh_1_">
</g>
<g id="picasso">
</g>
<g id="dieter_rams">
</g>
<g id="chaka_khan">
	<polygon id="body" class="st0" points="66,236 -20,308 -20,433 296,433 296,277 166,226 	"/>
	<path id="face_8_" class="st1" d="M84.59,110c-4,37-11.59,51-11.59,58s-21,47-16,52s59.09,25.5,56.09,56.5s-7,42-7,55s-3,24-3,24
		s7,7,9,8s22-11,23-15s13-39,13-39l12-59c0,0,34.91-72.5,36.91-80.5s-15.91-61.5-17.91-68.5s-62-28-62-25S84.59,110,84.59,110z"/>
	<path id="hair_2_" class="st2" d="M134,28c-11.11-1.23-24,2-31,2s-34,1-38,4S38,60,35,64S22,83,20,85s-1,13-2,16s-3,4-6,11
		s0,16-2,19S0,143-1,144s-10,10-10,10l13,99c0,0,1,15,0,20s5,7,1,14s1,13,2,19s3,9-2,15s2,10,2,18s-1,19,6,21c0,0-1.5-16.5,5.5-22.5
		c0,0,7,9,8,16s6,18,13,19S97,376,102,364c4-7,3-22,5-29s0.5-25.5,3.5-36.5s7-32,2-36s-20-33-19-37s-15-19-12-25s9-13,7-24
		s-17-18-9-27s13-21,13-23s14-5,16-12s3-8,4-9s6-4,6-9s7-5,13-4s18,4,22,1c0,0,3,7,5,11s11,17,15,27s2,17,3,31s-1,39-5,44
		s-24,33-24,36s-7,16-3,24s8,14,8,14c3,4,2-14,8-14s12,13,13,22s2,20,4,23s6,7,8,6s-5-4-1-15s2-24,5-24s13-13,15-15s3,0,10,2
		s18,24,29,26s7,0,16,10s16,18,18,19s0-144,0-144s-22-33-20-39s-2-14-5-18s-3-17-13-26s-24-19-24-25s2-16-14-19s-21-6-22-8
		s-22-7-27-8S138.5,28.5,134,28z"/>
	<g id="open-eyes_2_">
		<circle class="st5" cx="103.76" cy="150.72" r="4.69" fill="#ffffff"/>
		<circle class="st5" cx="146.35" cy="151.03" r="4.69" fill="#ffffff"/>
	</g>
	<g id="close-eyes_2_">
		<path class="st5" d="M113.79,154.4h-17c-0.83,0-1.5-0.67-1.5-1.5v-2.48c0-0.83,0.67-1.5,1.5-1.5h17c0.83,0,1.5,0.67,1.5,1.5v2.48
			C115.29,153.73,114.62,154.4,113.79,154.4z" fill="#ffffff" visibility="hidden"/>
		<path class="st5" d="M156.1,154.92h-17c-0.83,0-1.5-0.67-1.5-1.5v-2.48c0-0.83,0.67-1.5,1.5-1.5h17c0.83,0,1.5,0.67,1.5,1.5v2.48
			C157.6,154.24,156.93,154.92,156.1,154.92z" fill="#ffffff" visibility="hidden"/>
	</g>
</g>
</svg>
