<?xml version="1.0" encoding="utf-8"?>
<!-- Generator: Adobe Illustrator 24.1.3, SVG Export Plug-In . SVG Version: 6.00 Build 0)  -->
<svg version="1.1" xmlns="http://www.w3.org/2000/svg" xmlns:xlink="http://www.w3.org/1999/xlink" x="0px" y="0px"
	 viewBox="0 0 267 401" style="enable-background:new 0 0 267 401;" xml:space="preserve">
<style type="text/css">
	.st0{opacity:0.4;}
	.st1{opacity:0.6;}
	.st2{fill:#D4C4B5;}
	.st3{fill:#946D43;}
	.st4{fill:#C4C4C4;}
	.st5{fill:#FFFFFF;}
</style>
<g id="Layer_1">
</g>
<g id="chopin">
	<path id="body_1_" class="st2" d="M-18,246c15-7,60-17,68-22s20-12,25-15s4-5,13-12c6-6,1-12,17-12s77,27,77,27s18,12,22,23
		s6,19,10,22s23,16,27,20s14,20,19,32s11,29,11,29v83H-17L-18,246z"/>
	<path id="face" class="st3" d="M107,177c0,8,7,20,14,27s21,20,38,20s24-11,27-13s13-12,13-16s4-25,7-31s3-31,4-37s5-26,1-34
		s-15-18-27-16s-17,4-25,4s-24,5-27,10s-12.5,27.5-14.5,32.5S107.5,164.5,107,177z"/>
	<path id="hair" class="st4" d="M107,182c-3.5,2.5-16-2-21-2s-13-3-12-13s1-12,1-19s-2-13,0-18s8-14,8-20c1-12,11-29,25-43
		s23-21,47-20s37,14,43,18s15,16,15,22s1,7,3,12c0,0,3.5,9.5,3.5,15.5s10,29,10,33s-1,26-10,29s-17.39,4.32-18.7,4.66
		c-1.3,0.34,3.7-18.66,5.7-22.66s3.5-39.5,5-53c0.5-6.5-1.74-17.09-7.87-21.04c-6.13-3.96-17.13-6.96-31.13-3.96s-34,8-37,10
		s-6,20-11,25s-12,37-13,43S110.5,180.5,107,182z"/>
	<g id="open-eyes_1_">
		<circle class="st5" cx="142.97" cy="138.58" r="4.69"/>
		<circle class="st5" cx="187.56" cy="138.58" r="4.69"/>
	</g>
	<g id="close-eyes_1_">
		<path class="st5" d="M151,141.26h-17c-0.83,0-1.5-0.67-1.5-1.5v-2.48c0-0.83,0.67-1.5,1.5-1.5h17c0.83,0,1.5,0.67,1.5,1.5v2.48
			C152.5,140.59,151.83,141.26,151,141.26z" visibility="hidden" />
		<path class="st5" d="M197.32,141.78h-17c-0.83,0-1.5-0.67-1.5-1.5v-2.48c0-0.83,0.67-1.5,1.5-1.5h17c0.83,0,1.5,0.67,1.5,1.5v2.48
			C198.82,141.1,198.14,141.78,197.32,141.78z" visibility="hidden" />
	</g>
</g>
<g id="beethoven_1_">
</g>
</svg>
