<?xml version="1.0" encoding="utf-8"?>
<!-- Generator: Adobe Illustrator 24.1.3, SVG Export Plug-In . SVG Version: 6.00 Build 0)  -->
<svg version="1.1" xmlns="http://www.w3.org/2000/svg" xmlns:xlink="http://www.w3.org/1999/xlink" x="0px" y="0px"
	 viewBox="0 0 267 401" style="enable-background:new 0 0 267 401;" xml:space="preserve">
<style type="text/css">
	.st0{fill:#D4C4B5;}
	.st1{fill:#946D43;}
	.st2{fill:#C4C4C4;}
	.st3{fill:#FFFFFF;}
	.st4{fill:#51361C;}
</style>
<g id="Layer_1">
</g>
<g id="chopin">
</g>
<g id="beethoven_1_">
</g>
<g id="hoon">
</g>
<g id="gogh_1_">
</g>
<g id="picasso">
</g>
<g id="dieter_rams">
	<path id="body" class="st0" d="M87,191c-4,5-6,8-10,10s-35,12-42,15s-45,17-45,17v182h294V240c0,0-77-24-84-26s-16-6-16-9
		s-7-15-9-15S87,191,87,191z"/>
	<path id="face_1_" class="st1" d="M133,54c-24,0-49,13-50,31s0,23,0,23s-5,5-5,6s-2,12-2,12s-4-8-7-6s-2,11-1,15s2,13,2,19
		s3,14,8,18c0,0,5,21,10,29c0,0-1,10,1,14s4,13,7,16s18,17,20,21s8,10,13,11s10,10,11,12s18-16,21-20s9-10,10-13s9-11,9-16
		s1.5-18.5,1.5-22.5s4-10,4-12s5-20,5-26c0,0,5-5,5-9s3-19,4-21s9-15,3-18c-5-2-11,11-12,11s-3-5-3-5s-1-12-3-16s-5-10-5-11
		S180.5,54,133,54z"/>
	<g>
		<path id="hair_2_" class="st2" d="M71.5,122.5c0,0,4,15,6,19s2,3,2,3s0-24,0-27s5-8,5-11s-2-29,6-35s19-16,39-16s33,6,39,15
			s7,23,10,28s9,22,9,35c0,3,0,7,0,7s2-1,3-4s2-11,5-14s5-11,3-22s-8-33-20-37c0,0,0-5-3-9s-7-7-23-9s-40-3-55,6s-27,32-27,42
			C70.5,100.5,71.5,121.5,71.5,122.5z"/>
		<path class="st4" d="M191.16,118.12c-0.24-0.97-1.52-1.17-2.05-0.33c-2.25,3.59-6.71,10.26-9.6,11.71c-4,2-11-4-21-4
			c-3,0-10,0-15,3s-16,2-19,2s-8-4-17-4c-2,0-10,0-16,3s-8,2-8,2s-5-5-7-8s-3-8-3-8s-2-2-2,1s10,21,10,21s3,1,5,3s4,17,19,17
			S124,148,125,143s3-5,6-5c0,0,2.5-0.5,4.5,0.5c0,0,5,18,20,18s19-9,21-15s3-6,6-8c2.49-1.66,7.05-10.21,8.53-13.07
			c0.31-0.6,0.39-1.28,0.22-1.94L191.16,118.12z M118.5,151.5c-6,6-16,4-21,2s-7-7-8-14s12-10,17-10c11,0,15,5,17,8
			S123.5,146.5,118.5,151.5z M167.5,151.5c-4,4-16,3-21,0s-7-6-7-12s8.94-12,18-12c5,0,13,2,16,8S171.5,147.5,167.5,151.5z"/>
	</g>
	<g id="open-eyes_2_">
		<circle class="st5" cx="107.72" cy="135.03" r="4.69" fill="#ffffff"/>
		<circle class="st5" cx="155.31" cy="134.03" r="4.69" fill="#ffffff"/>
	</g>
	<g id="close-eyes_2_">
		<path class="st5" d="M114.75,138.71h-17c-0.83,0-1.5-0.67-1.5-1.5v-2.48c0-0.83,0.67-1.5,1.5-1.5h17c0.83,0,1.5,0.67,1.5,1.5v2.48
			C116.25,138.03,115.58,138.71,114.75,138.71z" fill="#ffffff" visibility="hidden"/>
		<path class="st5" d="M165.06,138.22h-17c-0.83,0-1.5-0.67-1.5-1.5v-2.48c0-0.83,0.67-1.5,1.5-1.5h17c0.83,0,1.5,0.67,1.5,1.5v2.48
			C166.56,137.55,165.89,138.22,165.06,138.22z" fill="#ffffff" visibility="hidden"/>
	</g>
</g>
</svg>
