<?xml version="1.0" encoding="utf-8"?>
<!-- Generator: Adobe Illustrator 24.1.3, SVG Export Plug-In . SVG Version: 6.00 Build 0)  -->
<svg version="1.1" xmlns="http://www.w3.org/2000/svg" xmlns:xlink="http://www.w3.org/1999/xlink" x="0px" y="0px"
	 viewBox="0 0 267 401" style="enable-background:new 0 0 267 401;" xml:space="preserve">
<style type="text/css">
	.st0{opacity:0.4;}
	.st1{opacity:0.6;}
	.st2{fill:#D4C4B5;}
	.st3{fill:#946D43;}
	.st4{fill:#C4C4C4;}
	.st5{fill:#FFFFFF;}
	.st6{fill:#51361C;}
</style>
<g id="Layer_1">
</g>
<g id="chopin">
</g>
<g id="beethoven_1_">
</g>
<g id="hoon">
</g>
<g id="gogh_1_">
	<path id="body" class="st2" d="M95,216c0,0-6,16-9,21s-23,15-26,18s-18,18-24,21s-39,22-41,36s0,100,0,100h317V306c0,0-13-8-17-13
		s-12-19-18-22s-17-17-25-20s-30-16-34-19s-21-12-22-16s-19-27-19-27L95,216z"/>
	<g id="face_4_">
		<path id="face_1_" class="st3" d="M91,84c-11,12-20,31-18,42c1,5-9,6-6,13s6,7,4,15s0,8,6,23s5,24,5,29s9,30,16,34
			s24.5,2.5,24.5,2.5c9,0,23-15,27-19s38-34,39-38c0,0,1,4,6,2S225,171,216,148c-4-10-14,2-16,3s-17.5-9.5-18.5-22.5s-5-58-22-62
			s-63,11-63,11L91,84z"/>
		<path id="beard" class="st6" d="M153,183c0,0-14,17-18,20s-15-15-19-14s-14,2-23,1s-9,5-11,4c-1-1-1-10-5-18
			c0,0,1.5,15.5,0.5,18.5s3,6,4,9S80,213,81,215s5,5,6,9s14,20,14,23s21,3,29,2s18-13,26-22s22-23,25-25s5-12,3-15
			c-1.65-2.47,0.1-18.49,1.33-22.96C180.59,168.4,153,183,153,183z M112,215c-5,0-20,1-21-2s-2-6-2-6c13-4,17-3,19-3s12,3,15,8
			C123,212,117,215,112,215z"/>
	</g>
	<path id="hair_2_" class="st4" d="M112.5,89.5c12-2,20-14,33-14s24,14,25,28s6,23,8,25s0,23,3,27s13,2,15,0s8-12,15-9
		S218,158,218,158s3.5-11.5-0.5-20.5s-5-12-5-17s0-20-7-32s-26-32-29-35s-17-13-35-11s-29,12-33,13s-25,27-27,32s-8,18-8,29
		c0,0,9-26,17-26S108.5,91.5,112.5,89.5z"/>
	<g id="open-eyes_2_">
		<circle class="st5" cx="88.37" cy="144.93" r="4.69"/>
		<circle class="st5" cx="139.97" cy="144.93" r="4.69"/>
	</g>
	<g id="close-eyes_2_">
		<path class="st5" d="M98.41,147.61h-17c-0.83,0-1.5-0.67-1.5-1.5v-2.48c0-0.83,0.67-1.5,1.5-1.5h17c0.83,0,1.5,0.67,1.5,1.5v2.48
			C99.91,146.93,99.24,147.61,98.41,147.61z" visibility="hidden"/>
		<path class="st5" d="M146.72,148.12l-17,0c-0.83,0-1.5-0.67-1.5-1.5v-2.48c0-0.83,0.67-1.5,1.5-1.5h17c0.83,0,1.5,0.67,1.5,1.5
			v2.48C148.22,147.45,147.55,148.12,146.72,148.12z" visibility="hidden"/>
	</g>
</g>
</svg>
