<?xml version="1.0" encoding="utf-8"?>
<!-- Generator: Adobe Illustrator 24.1.3, SVG Export Plug-In . SVG Version: 6.00 Build 0)  -->
<svg version="1.1" xmlns="http://www.w3.org/2000/svg" xmlns:xlink="http://www.w3.org/1999/xlink" x="0px" y="0px"
	 viewBox="0 0 267 401" style="enable-background:new 0 0 267 401;" xml:space="preserve">
<style type="text/css">
	.st0{opacity:0.4;}
	.st1{opacity:0.6;}
	.st2{fill:#D4C4B5;}
	.st3{fill:#946D43;}
	.st4{fill:#C4C4C4;}
	.st5{fill:#FFFFFF;}
</style>
<g id="Layer_1">
</g>
<g id="chopin">
</g>
<g id="beethoven_1_">
</g>
<g id="hoon">
	<path id="body" class="st2" d="M99,208c-7,7-11,16-11,21s-3,9-17,15s-85,31-85,31v147h296V270c0,0-62.5-19.5-80.5-26.5
		s-20-13-20-13s0.5-23.5-18-25C137.5,203.5,99,208,99,208z"/>
	<path id="face_1_" class="st3" d="M138,230c-9,0-39-8-48-35c-3.5-12.5-3.5-18.5-9.5-20.5s-12-14-12-19s0-10-1-12s-3-9,1-11
		s21-50,21-50l32-15l35,4l37,41c0,0,1,19,2,21S200,137,199,149s-1.5,13.5-3.5,15.5s-3,10-13,10C182.5,174.5,175.5,230,138,230z"/>
	<path id="hair_2_" class="st4" d="M100.5,92.5C94.98,98.02,88,100,88,104s-1.5,14.5-1.5,14.5l-3,3c0,0-1.5,40.5-3,39
		c-3.5-3.5-7-21-9-24s-10-19-10-32s7-35,26-49c6-3,13-2,15-3s13-12,33-11c18,1,36,15,40,20s11,9,16,18s15,15,7,52c-3,8-11,17-11,20
		s-3,14-3,14s2-33-1-37s-13,3-21-5s-18-19-15-35c1-13-23-11-26-11C107.5,78.5,102.5,90.5,100.5,92.5z"/>
	<g id="open-eyes_2_">
		<circle class="st5" cx="109.85" cy="144.76" r="4.69"/>
		<circle class="st5" cx="158.44" cy="144.76" r="4.69"/>
	</g>
	<g id="close-eyes_2_">
		<path class="st5" d="M118.88,147.44h-17c-0.83,0-1.5-0.67-1.5-1.5v-2.48c0-0.83,0.67-1.5,1.5-1.5h17c0.83,0,1.5,0.67,1.5,1.5v2.48
			C120.38,146.77,119.71,147.44,118.88,147.44z" visibility="hidden"/>
		<path class="st5" d="M168.19,147.95h-17c-0.83,0-1.5-0.67-1.5-1.5v-2.48c0-0.83,0.67-1.5,1.5-1.5l17,0c0.83,0,1.5,0.67,1.5,1.5
			v2.48C169.69,147.28,169.02,147.95,168.19,147.95z" visibility="hidden"/>
	</g>
</g>
</svg>
