<svg width="1703" height="2635" viewBox="0 0 1703 2635" fill="none" xmlns="http://www.w3.org/2000/svg">
<g clip-path="url(#clip0)">
<path d="M293.217 1637.11C288.882 1692.99 95.9328 1935.81 0 2050.24V2635H1699.7V1423.31C1705.92 1402.04 1707.64 1359.48 1664.78 1359.48C1611.19 1359.48 1528.7 1276.37 1448.63 1239.03C1368.55 1201.69 1379.39 1084.26 1323.39 1023.43C1278.6 974.775 1174.68 924.87 1128.31 906C944.276 962.81 566.084 1078 525.624 1084.26C485.163 1090.52 439.324 1224.18 421.462 1290.22H458.792C432.099 1327.56 372.332 1406.45 346.803 1423.31C314.892 1444.39 298.636 1567.25 293.217 1637.11Z" fill="#D7C4B3" stroke="black"/>
<path d="M495.94 663.375C550.77 656.151 567.037 592.338 623.674 573.675H716.462C768.881 573.675 749.6 559.227 767.676 532.136C785.751 505.045 861.066 532.136 866.489 559.227C871.911 586.317 900.832 630.265 917.1 688.66C933.368 747.056 979.159 752.474 980.967 796.421C982.775 840.368 1012.3 872.877 1048.45 898.162C1084.6 923.446 1076.16 898.162 1119.55 916.824C1162.93 935.487 1194.86 933.079 1232.82 916.824C1270.78 900.57 1238.24 896.356 1273.19 898.162C1308.13 899.968 1312.95 867.459 1312.95 841.572C1312.95 815.686 1342.48 787.391 1369.59 785.585C1396.7 783.779 1384.05 728.995 1384.05 688.66C1384.05 648.325 1362.36 606.786 1312.95 606.786H1250.89C1244.87 582.505 1221.85 533.581 1177.99 532.136C1123.16 530.33 1141.84 448.456 1108.7 400.896C1075.56 353.337 1105.09 309.39 1063.51 319.022C1021.94 328.654 1001.45 275.075 968.314 255.209C935.176 235.342 787.559 231.128 716.462 229.322C645.365 227.516 623.674 232.934 605.599 255.209C587.523 277.483 577.883 307.584 468.827 319.022C359.771 330.461 439.304 379.224 451.957 427.987C464.61 476.75 485.095 442.436 395.922 497.219C306.75 552.002 373.629 612.204 348.324 663.375C323.018 714.547 355.554 725.383 373.629 796.421C391.705 867.459 377.244 856.623 326.633 854.817C276.022 853.011 279.034 821.706 279.034 933.079C279.034 1044.45 350.131 1014.95 395.922 1013.15C441.714 1011.34 495.94 986.056 495.94 963.781C495.94 941.507 495.94 865.653 468.827 821.706C441.714 777.758 441.111 670.6 495.94 663.375Z" fill="#C4C4C4"/>
<path d="M467.575 881.329C452.633 847.107 441.668 730.102 438.053 675.877C436.367 652.982 475.408 614.422 521.198 575.26C566.988 536.098 663.388 547.545 770.03 513.203C876.673 478.86 892.338 597.552 901.978 614.422C911.618 631.292 998.378 804.209 1029.11 859.036C1059.83 913.863 1088.75 881.329 1089.96 909.043C1091.16 936.758 1066.46 956.038 1048.39 975.318C1030.31 994.598 921.258 1202.46 915.835 1212.1C910.413 1221.74 836.908 1277.17 759.185 1286.81C681.463 1296.45 679.053 1274.76 602.535 1212.1C526.018 1149.44 501.918 1028.34 490.47 1010.26C479.023 992.188 486.253 924.106 467.575 881.329Z" fill="#9B6B3B"/>
</g>
<defs>
<clipPath id="clip0">
<rect width="1703" height="2635" fill="white"/>
</clipPath>
</defs>
</svg>
