<?xml version="1.0" encoding="utf-8"?>
<!-- Generator: Adobe Illustrator 24.1.3, SVG Export Plug-In . SVG Version: 6.00 Build 0)  -->
<svg version="1.1" xmlns="http://www.w3.org/2000/svg" xmlns:xlink="http://www.w3.org/1999/xlink" x="0px" y="0px"
	 viewBox="0 0 267 401" style="enable-background:new 0 0 267 401;" xml:space="preserve">
<style type="text/css">
	.st0{opacity:0.7;}
	.st1{fill:#D4C4B5;}
	.st2{fill:#946D43;}
	.st3{fill:#C4C4C4;}
	.st4{fill:#FFFFFF;}
	.st5{fill:#ffffff;}
</style>
<g id="Layer_1">
</g>
<g id="chopin">
</g>
<g id="beethoven_1_">
</g>
<g id="hoon">
</g>
<g id="gogh_1_">
</g>
<g id="picasso">
</g>
<g id="dieter_rams">
</g>
<g id="chaka_khan">
</g>
<g id="paula_scher">
	<path id="body" class="st1" d="M67,251c-30,11-85,48-85,48v136h298V264c0,0-18-10-52-19S67,251,67,251z"/>
	<path id="face_8_" class="st2" d="M126,69c0,0-40,1-38,33s6,52,7,59s2,19,3,23s7,16,10,18s-1,13-1,17s-10,42-9,45s22,19,52,17
		s39-9,46-15c0,0-16.5-10.5-16.5-23.5S184,205,184,202c0,0,7.5-7.5,9.5-24.5s-17-106-36-108S126,69,126,69z"/>
	<path id="hair_2_" class="st3" d="M127.5,76.5c-4-1-16.5,2.5-20,5s-16,4-16,35s8,68,11,76s6.5,9.5,8,11S109,229,110,233s9,28,8,32
		s-8.5,4.5-14.5,4.5c-5.33,0-35.87,2.36-52.46-8.3c-3.39-2.18-4.67-6.52-2.96-10.17c1.03-2.21,2.46-5.29,4.42-9.53c6-13,4-24,7-29
		s8-30,8-46s-3-83,11-99s36-28,51-23c5,2,5,4,5,4s8-3,12-2s34,9,51,38s23,70,23,71s9,52,15,64s8,33,4,34s-36,15-46,10s-14-11-14-21
		s2-36,3-39s10-20,10-25s-3-27-9-44s-19-50-27-54s-16-5-20-3S127.5,76.5,127.5,76.5z"/>
	<g id="open-eyes_2_">
		<circle class="st5" cx="114.81" cy="139.35" r="4.69" />
		<circle class="st5" cx="164.41" cy="134.65" r="4.69" />
	</g>
	<g id="close-eyes_2_">
		<path class="st5" d="M124.02,142.42l-16.96,1.2c-0.83,0.06-1.54-0.56-1.6-1.39l-0.18-2.47c-0.06-0.83,0.56-1.54,1.39-1.6
			l16.96-1.2c0.83-0.06,1.54,0.56,1.6,1.39l0.18,2.47C125.46,141.64,124.84,142.36,124.02,142.42z" visibility="hidden"/>
		<path class="st5" d="M172.3,138.04l-16.97,1.01c-0.83,0.05-1.54-0.58-1.59-1.41l-0.15-2.47c-0.05-0.83,0.58-1.54,1.41-1.59
			l16.97-1.01c0.83-0.05,1.54,0.58,1.59,1.41l0.15,2.47C173.76,137.28,173.13,137.99,172.3,138.04z" visibility="hidden"/>
	</g>
</g>
</svg>
