<?xml version="1.0" encoding="utf-8"?>
<!-- Generator: Adobe Illustrator 24.1.3, SVG Export Plug-In . SVG Version: 6.00 Build 0)  -->
<svg version="1.1" xmlns="http://www.w3.org/2000/svg" xmlns:xlink="http://www.w3.org/1999/xlink" x="0px" y="0px"
	 viewBox="0 0 267 401" style="enable-background:new 0 0 267 401;" xml:space="preserve">
<style type="text/css">
	.st0{fill:#D4C4B5;}
	.st1{fill:#946D43;}
	.st2{fill:#C4C4C4;}
	.st3{fill:#FFFFFF;}
	.st4{fill:#51361C;}
</style>
<g id="Layer_1">
</g>
<g id="chopin">
</g>
<g id="beethoven_1_">
</g>
<g id="hoon">
</g>
<g id="gogh_1_">
</g>
<g id="picasso">
	<path id="body" class="st0" d="M72,192c-10,4-16,5-18,14s-4,16-10,18s-53,28-53,28v172h285.5v-37.5c0,0-14-22-20-36s-26-80-48-92
		s-29-14-37-16s-11-11-13-14S72,192,72,192z"/>
	<path id="face_1_" class="st1" d="M147,44c-29,1.99-51,9-65,19s-16.5,33.5-15.5,44.5c0,7,1,9,1,9s-7-5-11,3s-6,13,0,23s8,14,8,16
		s6,12,8,11s-2,27-2,28s-1,10,6,20s55,47,61,49c0,0,1,2,1,5s12,3,12,3s3,0,4,6s16,28,18,34s14,41,15,49s6,11,6,11s6-9,5-24
		s-4-44-10-56s-22-42-27-45s-2-6-2-7s4-10,12-15s16-17,18-22s6-12,7-18s3-19,4-24s3-29,4-34s4-30,1-37S183.5,41.5,147,44z"/>
	<path id="hair_2_" class="st2" d="M66,116c0,0-2-18,1-26s4-26,24-34l9-3c1.19-0.45,2.4,1.8,2,3v0c-1,4-11,62-12,66s-3,5-3,5
		s-4,1-8-2S68,116,66,116"/>
	<g id="open-eyes_2_">
		<circle class="st5" cx="132.46" cy="117.1" r="4.69" fill="#ffffff"/>
		<circle class="st5" cx="186.06" cy="123.1" r="4.69" fill="#ffffff"/>
	</g>
	<g id="close-eyes_2_">
		<path class="st5" d="M142.16,119.67l-16.9-1.81c-0.82-0.09-1.42-0.83-1.33-1.65l0.26-2.46c0.09-0.82,0.83-1.42,1.65-1.33
			l16.9,1.81c0.82,0.09,1.42,0.83,1.33,1.65l-0.26,2.46C143.72,119.17,142.98,119.76,142.16,119.67z" fill="#ffffff" visibility="hidden"/>
		<path class="st5" d="M191.37,126.4l-16.85-2.26c-0.82-0.11-1.4-0.86-1.29-1.69l0.33-2.46c0.11-0.82,0.86-1.4,1.69-1.29l16.85,2.26
			c0.82,0.11,1.4,0.86,1.29,1.69l-0.33,2.46C192.95,125.94,192.19,126.51,191.37,126.4z" fill="#ffffff" visibility="hidden"/>
	</g>
</g>
</svg>
